<?xml version="1.0" standalone="no"?>
<!DOCTYPE svg PUBLIC "-//W3C//DTD SVG 20010904//EN"
 "http://www.w3.org/TR/2001/REC-SVG-20010904/DTD/svg10.dtd">
<svg version="1.0" xmlns="http://www.w3.org/2000/svg"
 width="1667.000000pt" height="1667.000000pt" viewBox="0 0 1667.000000 1667.000000"
 preserveAspectRatio="xMidYMid meet">
<metadata>
Created by potrace 1.15, written by Peter Selinger 2001-2017
</metadata>
<g transform="translate(0.000000,1667.000000) scale(0.100000,-0.100000)"
fill="#FF3347" stroke="none">
<path d="M11040 14307 c-162 -44 -309 -129 -425 -244 -89 -90 -93 -96 -480
-768 -76 -132 -202 -350 -280 -485 -78 -135 -154 -267 -168 -293 -26 -46 -36
-63 -70 -118 l-16 -26 -133 37 c-401 113 -747 155 -1216 147 -381 -6 -586 -32
-940 -118 -671 -164 -1335 -521 -1837 -989 -621 -578 -1042 -1288 -1244 -2101
-90 -362 -116 -591 -116 -1014 0 -343 8 -446 56 -725 34 -196 145 -624 170
-653 5 -7 46 59 199 327 39 69 111 192 120 206 6 8 13 22 17 30 4 8 16 31 28
50 20 32 269 463 321 555 12 22 55 96 95 165 39 69 89 154 109 190 20 36 63
110 95 165 32 55 115 199 185 320 70 121 162 281 205 355 100 171 140 242 188
327 321 567 743 958 1307 1210 534 240 1131 302 1705 178 802 -173 1502 -710
1869 -1435 148 -291 234 -568 287 -925 20 -132 17 -577 -4 -718 -96 -628 -365
-1159 -803 -1588 -153 -149 -237 -218 -400 -328 -341 -228 -748 -381 -1184
-443 -145 -20 -595 -17 -735 5 -335 54 -661 162 -927 307 -61 33 -67 43 -44
75 12 18 144 246 321 555 40 69 125 217 190 330 65 113 135 234 155 270 20 36
51 89 68 118 18 29 32 55 32 57 0 4 127 216 134 222 2 2 30 -9 62 -25 452
-226 1008 -26 1230 441 61 130 77 212 77 387 0 139 -3 164 -27 245 -33 109
-92 228 -152 306 -113 147 -294 272 -469 325 -153 46 -374 45 -530 -2 -133
-41 -287 -134 -378 -229 -103 -107 -100 -103 -514 -825 -97 -168 -190 -330
-208 -360 -18 -30 -61 -104 -95 -165 -35 -60 -82 -141 -105 -180 -23 -38 -58
-99 -77 -135 -20 -36 -88 -154 -152 -264 -64 -109 -116 -200 -116 -202 0 -3
-12 -23 -26 -46 -28 -43 -118 -199 -421 -728 -96 -168 -190 -330 -208 -360
-18 -30 -91 -156 -162 -280 -72 -124 -182 -315 -245 -425 -64 -110 -128 -222
-143 -250 -15 -27 -31 -54 -35 -60 -4 -5 -58 -98 -120 -205 -537 -934 -526
-914 -556 -1059 -12 -64 -15 -118 -12 -225 4 -129 8 -150 40 -243 46 -134 107
-239 192 -330 202 -216 442 -315 729 -300 299 16 563 173 728 432 27 42 95
158 199 340 112 196 166 289 211 365 24 41 49 84 55 95 17 32 205 359 279 485
37 63 80 140 97 170 17 30 34 59 38 63 4 5 55 -5 113 -22 58 -17 163 -44 234
-60 114 -26 186 -39 398 -71 348 -53 917 -33 1328 46 262 50 607 152 793 235
22 10 65 28 95 39 74 29 347 167 444 225 726 429 1301 1051 1665 1800 100 205
138 298 210 514 290 862 293 1771 9 2646 -208 644 -563 1219 -1048 1700 -56
55 -101 105 -101 111 0 12 39 85 150 274 40 69 92 159 115 200 24 41 74 129
112 195 38 66 122 212 187 325 65 113 158 273 206 355 143 246 168 304 194
444 55 292 -31 581 -237 798 -117 123 -231 194 -397 248 -75 25 -103 28 -245
32 -143 3 -169 1 -245 -20z"/>
</g>
</svg>
